<svg xmlns="http://www.w3.org/2000/svg" xmlns:xlink="http://www.w3.org/1999/xlink" width="24" height="22" viewBox="0 0 24 22"><defs><clipPath id="a"><rect width="24" height="22" transform="translate(280 1406)" fill="#fefefe"/></clipPath></defs><g transform="translate(-280 -1406)" clip-path="url(#a)"><path d="M20.883,8.439a5.576,5.576,0,0,0-9.955-3.312,3.131,3.131,0,0,0-5.61,1.915,3.094,3.094,0,0,0,.031.444,4.543,4.543,0,1,0-.81,9.014H6.69L12,22l5.308-5.5H19.92a4.089,4.089,0,0,0,.962-8.061ZM12,19.5,7.5,15h3V10.5h3V15h3Z" transform="translate(280.001 1404.502)" fill="#fefefe"/></g></svg>