<svg xmlns="http://www.w3.org/2000/svg" xmlns:xlink="http://www.w3.org/1999/xlink" width="100" height="100" viewBox="0 0 100 100"><defs><clipPath id="a"><rect width="80" height="80" rx="10" transform="translate(424 2025)" fill="#2c3246"/></clipPath></defs><g transform="translate(-299 -1912)"><rect width="100" height="100" rx="10" transform="translate(299 1912)" fill="#2c3246"/><g transform="translate(-116 -102)" clip-path="url(#a)"><g transform="translate(437.333 2025)"><path d="M13.333,80A13.338,13.338,0,0,0,26.667,66.667V53.333H13.333a13.333,13.333,0,0,0,0,26.667Z" fill="#1f6da5"/><path d="M0,40A13.338,13.338,0,0,1,13.333,26.667H26.667V53.333H13.333A13.338,13.338,0,0,1,0,40Z" fill="#2d85c4"/><path d="M0,13.333A13.338,13.338,0,0,1,13.333,0H26.667V26.667H13.333A13.338,13.338,0,0,1,0,13.333Z" fill="#50a8ea"/><path d="M26.667,0H40a13.333,13.333,0,0,1,0,26.667H26.667Z" fill="#65a8d8"/><path d="M53.333,40A13.333,13.333,0,1,1,40,26.667,13.338,13.338,0,0,1,53.333,40Z" fill="#50a8ea"/></g></g></g></svg>