<svg xmlns="http://www.w3.org/2000/svg" xmlns:xlink="http://www.w3.org/1999/xlink" width="32" height="32" viewBox="0 0 32 32"><defs><clipPath id="a"><rect width="32" height="32" transform="translate(298 21)" fill="#fefefe"/></clipPath></defs><g transform="translate(-298 -21)" clip-path="url(#a)"><path d="M25.333,0H6.667A6.667,6.667,0,0,0,0,6.667V25.333A6.667,6.667,0,0,0,6.667,32H25.333A6.667,6.667,0,0,0,32,25.333V6.667A6.667,6.667,0,0,0,25.333,0ZM19.379,26.12c-.54.1-.712-.228-.712-.512V22.681a2.542,2.542,0,0,0-.733-1.975c2.376-.264,4.872-1.167,4.872-5.263a4.126,4.126,0,0,0-1.1-2.863A3.841,3.841,0,0,0,21.6,9.759s-.895-.287-2.931,1.093a10.091,10.091,0,0,0-5.343,0C11.292,9.469,10.4,9.756,10.4,9.756a3.839,3.839,0,0,0-.1,2.824,4.123,4.123,0,0,0-1.1,2.863c0,4.085,2.489,5,4.86,5.272a2.27,2.27,0,0,0-.677,1.427,2.272,2.272,0,0,1-3.1-.888,2.244,2.244,0,0,0-1.636-1.1s-1.04-.013-.073.649a2.824,2.824,0,0,1,1.185,1.56s.617,1.9,3.584,1.259v1.985c0,.281-.172.612-.7.513a10.663,10.663,0,1,1,6.749,0Z" transform="translate(298 21)" fill="#fefefe"/></g></svg>