<svg xmlns="http://www.w3.org/2000/svg" xmlns:xlink="http://www.w3.org/1999/xlink" width="100" height="100" viewBox="0 0 100 100"><defs><clipPath id="a"><rect width="80" height="80" rx="10" transform="translate(1166 2184)" fill="#50a8ea"/></clipPath></defs><g transform="translate(-1288 -2177)"><rect width="100" height="100" rx="10" transform="translate(1288 2177)" fill="#2c3246"/><g transform="translate(132 3)" clip-path="url(#a)"><g transform="translate(1166 2185)"><path d="M14.167,0H65.833A14.155,14.155,0,0,1,80,14.167V63.833A14.155,14.155,0,0,1,65.833,78H14.167A14.155,14.155,0,0,1,0,63.833V14.167A14.155,14.155,0,0,1,14.167,0Z" fill="#50a8ea"/><path d="M18,54.7V20.4c0-.233.1-.367.333-.367.567,0,1.1,0,1.867-.033.8-.033,1.633-.033,2.533-.067s1.867-.033,2.9-.067,2.033-.033,3.033-.033a19.6,19.6,0,0,1,6.867,1.033A11.9,11.9,0,0,1,40,23.6a10.613,10.613,0,0,1,2.433,3.8,12.758,12.758,0,0,1,.767,4.333,11.917,11.917,0,0,1-2,7.1A11.42,11.42,0,0,1,35.833,42.9a21.6,21.6,0,0,1-7.5,1.133c-.8,0-1.333,0-1.667-.033s-.8-.033-1.433-.033v10.7a.415.415,0,0,1-.367.467H18.4C18.133,55.133,18,55,18,54.7Zm7.267-28.233v11.2c.467.033.9.067,1.3.067h1.767a12.451,12.451,0,0,0,3.833-.6A5.732,5.732,0,0,0,34.9,35.367a5.151,5.151,0,0,0,1.033-3.433,5.486,5.486,0,0,0-.767-2.967,4.834,4.834,0,0,0-2.333-1.9A9.781,9.781,0,0,0,28.9,26.4c-.867,0-1.633,0-2.267.033a7.632,7.632,0,0,0-1.367.033Z" fill="#2c3246"/><path d="M64,35.633A11.8,11.8,0,0,0,60.8,34.5a17.572,17.572,0,0,0-3.733-.433,6.711,6.711,0,0,0-2,.233,1.712,1.712,0,0,0-1.033.667,1.767,1.767,0,0,0-.267.9,1.483,1.483,0,0,0,.333.867,3.761,3.761,0,0,0,1.133.9c.767.4,1.567.767,2.367,1.1a24.144,24.144,0,0,1,5.133,2.433,7.756,7.756,0,0,1,2.633,2.767,7.2,7.2,0,0,1,.767,3.433,7.756,7.756,0,0,1-1.3,4.433A8.353,8.353,0,0,1,61.1,54.767a15.273,15.273,0,0,1-6.033,1.067,22.961,22.961,0,0,1-4.533-.433,13.446,13.446,0,0,1-3.4-1.067.656.656,0,0,1-.367-.633V47.9a.362.362,0,0,1,.133-.3.254.254,0,0,1,.3.033,14.269,14.269,0,0,0,4.133,1.633,15.518,15.518,0,0,0,3.933.5,6.362,6.362,0,0,0,2.767-.467,1.548,1.548,0,0,0,.9-1.4,1.766,1.766,0,0,0-.8-1.333A14.137,14.137,0,0,0,54.867,45a20.4,20.4,0,0,1-4.733-2.4A8.631,8.631,0,0,1,47.6,39.767a7.152,7.152,0,0,1-.767-3.4,7.84,7.84,0,0,1,1.133-4.033,8.217,8.217,0,0,1,3.5-3.067,12.926,12.926,0,0,1,5.9-1.167,28.737,28.737,0,0,1,4.133.3,11.729,11.729,0,0,1,2.867.767.586.586,0,0,1,.333.3,1.673,1.673,0,0,1,.067.4V35.3a.41.41,0,0,1-.167.333A.888.888,0,0,1,64,35.633Z" fill="#2c3246"/></g></g></g></svg>