<svg xmlns="http://www.w3.org/2000/svg" xmlns:xlink="http://www.w3.org/1999/xlink" width="16" height="16" viewBox="0 0 16 16"><defs><clipPath id="a"><rect width="16" height="16" transform="translate(130 856)" fill="#9195a0"/></clipPath></defs><g transform="translate(-130 -856)" clip-path="url(#a)"><path d="M15.671,12.779l-7.2-6.168A4.5,4.5,0,0,0,3.193.193l2.6,2.6a1,1,0,0,1,0,1.414L4.207,5.793a1,1,0,0,1-1.414,0l-2.6-2.6A4.5,4.5,0,0,0,6.611,8.475l6.168,7.2a.914.914,0,0,0,1.358.052l1.586-1.586a.914.914,0,0,0-.052-1.358Z" transform="translate(130 856)" fill="#9195a0"/></g></svg>