<svg xmlns="http://www.w3.org/2000/svg" xmlns:xlink="http://www.w3.org/1999/xlink" width="100" height="100" viewBox="0 0 100 100"><defs><clipPath id="a"><rect width="80" height="80" rx="10" transform="translate(735 1792)" fill="#2c3246"/></clipPath></defs><g transform="translate(-731 -1912)"><rect width="100" height="100" rx="10" transform="translate(731 1912)" fill="#2c3246"/><g transform="translate(5 131)" clip-path="url(#a)"><g transform="translate(730.458 1787.457)"><path d="M15.712,76.542l-6.419-72h70.5L73.366,76.548l-28.84,7.995Z" fill="#50a8ea"/><path d="M44.543,10.428v68l23.321-6.465,5.495-61.534Z" fill="#3684bc"/><path d="M22.426,19.259l2.38,26.7H55.413L54.386,57.417l-9.855,2.665L34.7,57.421l-.658-7.354H25.173l1.268,14.177,18.088,5.024L62.64,64.244l2.428-27.11H32.883l-.808-9.043H65.868l.791-8.831Z" fill="#2c3246"/><path d="M44.543,19.259H22.426l2.38,26.7H44.543v-8.83H32.883l-.808-9.043H44.543Z" fill="#2c3246"/><path d="M44.543,60.078l-.011,0L34.7,57.421l-.658-7.354H25.173l1.268,14.177,18.088,5.024.013,0Z" fill="#2c3246"/></g></g></g></svg>