<svg xmlns="http://www.w3.org/2000/svg" xmlns:xlink="http://www.w3.org/1999/xlink" width="100" height="100" viewBox="0 0 100 100"><defs><clipPath id="a"><rect width="80" height="80" rx="10" transform="translate(1038 1788)" fill="#2c3246"/></clipPath></defs><g transform="translate(-1038 -1912)"><rect width="100" height="100" rx="10" transform="translate(1038 1912)" fill="#2c3246"/><g transform="translate(10 134)" clip-path="url(#a)"><g transform="translate(1028.89 1782.024)"><path d="M46.155,22.548c-3.265-4.9-3.971-11.441-4.125-14.13C33.737,10.211,25.5,13.428,25.973,15.8c.06.3.436.656,1.06,1l-.976,1.746a3.629,3.629,0,0,1-2.043-2.357c-.538-2.681,2.5-5.107,9.281-7.416a84.282,84.282,0,0,1,9.5-2.557l1.194-.24V7.2c0,.084.052,8.574,3.831,14.242l-1.664,1.108Z" fill="#3684bc"/><path d="M49.488,85.976h-.5c-16.379,0-34.608-5.145-36.762-13.754-1.314-5.259,2.983-11.069,12.425-16.8l1.04,1.708c-8.5,5.157-12.589,10.341-11.523,14.606,1.869,7.474,19.145,12.133,34.3,12.237A50.57,50.57,0,0,0,54.419,44.24l1.933-.5A52.357,52.357,0,0,1,49.79,85.572l-.3.4Z" fill="#3684bc"/><path d="M19.857,78.59a7.663,7.663,0,0,1-1.7-.14,1,1,0,0,1-.466-1.68c.144-.144,14.39-14.412,16.314-25.949l1.971.328c-1.654,9.925-11.427,21.24-15.308,25.407C24.545,76.335,34.335,74.52,53.127,64,38.461,62.393,36.142,50.652,36.118,50.526l1.965-.362c.094.492,2.451,12.019,18.483,12.019h.016a1,1,0,0,1,.5,1.865C34.62,77.063,23.727,78.588,19.857,78.59Z" fill="#3684bc"/><path d="M29.04,83.568a1,1,0,0,1-.582-1.814,34.5,34.5,0,0,0,7.41-8.454,39.782,39.782,0,0,1-4.391-2.273,16.54,16.54,0,0,1-4.119-3.381,41.912,41.912,0,0,1-14.046,1.538l.168-1.991a39.2,39.2,0,0,0,12.639-1.28A11.594,11.594,0,0,1,25.9,55.131l1.748.974a9.236,9.236,0,0,0,.5,9.263A82.384,82.384,0,0,0,42.1,59.806,64.36,64.36,0,0,0,44.55,47.258a1,1,0,0,1,1.412-.812c.064.03,6.526,2.981,11.2,4.907a1,1,0,0,1,.182,1.752A124.955,124.955,0,0,1,43.8,61.186a54.366,54.366,0,0,1-4.917,11.179,44.634,44.634,0,0,0,13.908,2.807,1,1,0,0,1,.486,1.875C44.2,82.09,29.746,83.51,29.136,83.568c-.032,0-.064,0-.1,0ZM37.808,74.1a41.864,41.864,0,0,1-5.65,7.058,76.154,76.154,0,0,0,16.811-4.277A47.452,47.452,0,0,1,37.808,74.1Zm-8.282-7.07a15.485,15.485,0,0,0,2.979,2.279,37.4,37.4,0,0,0,4.439,2.269,52.218,52.218,0,0,0,4.283-9.133,83.326,83.326,0,0,1-11.7,4.585Zm16.865-18.2a67.88,67.88,0,0,1-1.825,9.7c3.319-1.77,6.706-3.791,10.121-6.05-3.1-1.312-6.5-2.837-8.3-3.647Z" fill="#3684bc"/><path d="M35.838,21.194a1.008,1.008,0,0,1-.65-.24c-3.219-2.755-7.008-8.362-7.168-8.6a1,1,0,0,1,1.308-1.436c.022.006,1.875.77,14.43,2.861a1,1,0,0,1,.58,1.656,23.253,23.253,0,0,1-8.144,5.694,1.053,1.053,0,0,1-.356.064Zm-4.553-7.706a43.908,43.908,0,0,0,4.743,5.536,22.367,22.367,0,0,0,5.486-3.6c-5.165-.882-8.316-1.51-10.229-1.941Z" fill="#3684bc"/><path d="M43.674,48.787a1,1,0,0,1-.994-1.1c.584-5.5-7.85-7.7-7.936-7.722a1,1,0,0,1-.46-1.676c.414-.414,10.275-10.193,22.648-15.564a1,1,0,0,1,1.378,1.118C55.939,35.324,44.894,47.921,44.426,48.451A1.019,1.019,0,0,1,43.674,48.787ZM36.9,38.559c2.367.89,6.514,2.949,7.564,6.71,2.9-3.615,9.082-11.943,11.391-19.863A83.741,83.741,0,0,0,36.9,38.559Z" fill="#50a8ea"/><path d="M26.151,56.7l-.95-1.76A41.839,41.839,0,0,0,36.812,44.84c-3.007,2.059-4.729,3.469-4.783,3.515l-1.278-1.54a92.429,92.429,0,0,1,9.259-6.438,27.356,27.356,0,0,0,3.405-7.63c.106-.424.2-.834.272-1.23a53.188,53.188,0,0,0-9.839-2.537,1,1,0,0,1-.594-1.67,34.517,34.517,0,0,1,9.305-6.924,1,1,0,0,1,1.162.228c.134.146,2.879,3.229,2.181,9.607a53.571,53.571,0,0,1,6.98,3.3,87.776,87.776,0,0,1,18.453-6.058,1.018,1.018,0,0,1,.962.336,1,1,0,0,1,.166,1.006c-2.6,6.662-9.569,13.778-9.865,14.078a1.018,1.018,0,0,1-.766.3,1.006,1.006,0,0,1-.73-.376,30.884,30.884,0,0,0-8.324-7.044,110.241,110.241,0,0,0-11.365,6.1c-4.039,6.3-10.135,12.093-15.264,14.854ZM54.969,34.782a32.789,32.789,0,0,1,6.966,5.894,53.034,53.034,0,0,0,7.882-10.841,86.508,86.508,0,0,0-14.848,4.947Zm-9.383-2.547q-.1.489-.226,1a25.523,25.523,0,0,1-1.943,5.121c2.191-1.252,4.617-2.543,7.234-3.795A50.937,50.937,0,0,0,45.585,32.235Zm-9.5-4.9a58.212,58.212,0,0,1,7.88,2.171,11.491,11.491,0,0,0-1.294-6.942,32.167,32.167,0,0,0-6.586,4.771Z" fill="#50a8ea"/><path d="M36.281,37.18c0,8.758-7.3,15.716-12.557,20.794-.88.86-3.859,1-3.859,1,.74-.76,1.58-1.56,2.479-2.419,5-4.839,11.937-11.457,11.937-19.375,0-9.377-3.779-13.076-6.758-16.036A14.177,14.177,0,0,1,24.4,16.966l.62-.26c.68.3,1.46.64,2.059.9a15.665,15.665,0,0,0,1.859,2.119C32,22.784,36.281,26.983,36.281,37.18Z" fill="#50a8ea"/><path d="M86.228,39.577s-1.21.172-1.55.212c-17.515,1.939-35.59,6.978-45.927,11.117a89.191,89.191,0,0,0-11.157,5.359c-.02.02-.04.02-.08.04-2.079,1.2-7.138,3.679-11.237,5.858,6-6.378,17.235-11.3,21.714-13.1,10.137-4.059,27.552-8.958,44.688-11.057C80.659,35.65,75.721,30.652,66,26.933c-5.678-2.2-14.316-3.439-21.934-4.539-12.117-1.74-19.015-2.9-19.675-6.2a3.05,3.05,0,0,1,.26-1.959,8.051,8.051,0,0,0,2.219,2.279,6.227,6.227,0,0,0,.6.36l.02.02c2.839,1.5,10.5,2.6,16.875,3.519,7.718,1.12,16.455,2.379,22.354,4.639C80.459,30.352,85.2,37.93,85.4,38.249c.18.3.83,1.328.83,1.328Z" fill="#50a8ea"/></g></g></g></svg>