<svg xmlns="http://www.w3.org/2000/svg" xmlns:xlink="http://www.w3.org/1999/xlink" width="100" height="100" viewBox="0 0 100 100"><defs><clipPath id="a"><rect width="80" height="80" rx="10" transform="translate(426 2018)" fill="#2c3246"/></clipPath></defs><g transform="translate(-174 -1912)"><rect width="100" height="100" rx="10" transform="translate(174 1912)" fill="#2c3246"/><g transform="translate(-242 -96)" clip-path="url(#a)"><g transform="translate(426 2019)"><path d="M14.167,0H65.833A14.155,14.155,0,0,1,80,14.167V63.833A14.155,14.155,0,0,1,65.833,78H14.167A14.155,14.155,0,0,1,0,63.833V14.167A14.155,14.155,0,0,1,14.167,0Z" fill="#50a8ea"/><path d="M42.067,20.5l-10,16.5L42.733,54.5a.574.574,0,0,1,.067.4c-.033.133-.167.033-.367.067H34.8c-.533,0-.9-.033-1.133-.367-.7-1.4-1.433-2.767-2.133-4.167-.7-1.367-1.467-2.767-2.267-4.2s-1.6-2.867-2.4-4.333H26.8c-.7,1.433-1.467,2.867-2.233,4.3s-1.533,2.867-2.267,4.267c-.767,1.4-1.533,2.833-2.3,4.2-.133.333-.4.367-.767.367H11.9c-.133,0-.233.067-.233-.1a.463.463,0,0,1,.067-.367l10.367-17L12,20.467c-.1-.133-.133-.267-.067-.333A.386.386,0,0,1,12.267,20h7.567a1.967,1.967,0,0,1,.467.067.945.945,0,0,1,.333.3c.633,1.433,1.367,2.867,2.133,4.3.8,1.433,1.567,2.833,2.4,4.233.8,1.4,1.533,2.8,2.233,4.233h.067c.7-1.467,1.433-2.9,2.167-4.3s1.5-2.8,2.267-4.2,1.5-2.833,2.233-4.2a.567.567,0,0,1,.2-.333.636.636,0,0,1,.433-.067H41.8a.307.307,0,0,1,.367.233c.033.033-.033.167-.1.233Zm15.4,35.167a16.572,16.572,0,0,1-7.167-1.5,11.621,11.621,0,0,1-5.033-4.533,14.423,14.423,0,0,1-1.833-7.6A13.69,13.69,0,0,1,45.267,35a13.842,13.842,0,0,1,5.3-5.167A17.051,17.051,0,0,1,59,27.9a5.953,5.953,0,0,1,.7.033c.3.033.633.033,1.033.067V17.467c0-.233.1-.367.333-.367h6.767a.3.3,0,0,1,.333.233v31.8c0,.6.033,1.267.067,2,.067.7.1,1.367.133,1.933a.541.541,0,0,1-.333.533A25.457,25.457,0,0,1,62.6,55.2,29.4,29.4,0,0,1,57.467,55.667ZM60.733,49V34.333a8.526,8.526,0,0,0-.9-.167c-.367-.033-.733-.067-1.1-.067a8.217,8.217,0,0,0-3.767.867,7.473,7.473,0,0,0-2.833,2.467,7.389,7.389,0,0,0-1.1,4.233A9.289,9.289,0,0,0,51.6,45.1a6.515,6.515,0,0,0,1.5,2.367A5.759,5.759,0,0,0,55.367,48.8a8.725,8.725,0,0,0,2.767.433c.5,0,.967-.033,1.4-.067a2.915,2.915,0,0,0,1.2-.167Z" fill="#2c3246"/></g></g></g></svg>