<svg xmlns="http://www.w3.org/2000/svg" xmlns:xlink="http://www.w3.org/1999/xlink" width="100" height="100" viewBox="0 0 100 100"><defs><clipPath id="a"><rect width="80" height="80" rx="10" transform="translate(1421 1836)" fill="#2c3246"/></clipPath></defs><g transform="translate(-1288 -1912)"><rect width="100" height="100" rx="10" transform="translate(1288 1912)" fill="#2c3246"/><g transform="translate(-123 87)" clip-path="url(#a)"><g transform="translate(1421 1835.903)"><path d="M40,57.8C17.2,57.8,0,50.34,0,40S17.2,22,40,22s40,7.66,40,18S62.8,57.8,40,57.8Zm0-29.936c-19.458,0-34.25,6.532-34.25,12.262S20.542,52.136,40,52.136,74.25,45.6,74.25,39.874,59.458,27.864,40,27.864Z" fill="#50a8ea"/><path d="M24.8,76.193h0a10.066,10.066,0,0,1-5.056-1.284,11.2,11.2,0,0,1-5.064-7.124C12.392,59.221,16.09,44.821,24.11,31.1,33.52,15.007,46.014,4.2,55.2,4.2a10.064,10.064,0,0,1,5.054,1.284A11.184,11.184,0,0,1,65.314,12.6c2.294,8.564-1.406,22.966-9.43,36.69-9.4,16.092-21.894,26.9-31.08,26.9ZM55.2,10.2c-5.776,0-16.818,8.386-25.908,23.926-8.246,14.112-10.664,25.818-8.808,32.108A5.543,5.543,0,0,0,22.724,69.7c4.722,2.7,17.618-5.7,27.982-23.434,8.25-14.114,10.92-25.57,8.812-32.11-.542-1.682-1.208-2.87-2.238-3.456a4.083,4.083,0,0,0-2.082-.5Z" fill="#50a8ea"/><path d="M55.2,75.994h0c-9.194,0-21.686-10.81-31.088-26.9C16.09,35.372,12.392,20.97,14.684,12.408a11.19,11.19,0,0,1,5.062-7.122A10.055,10.055,0,0,1,24.8,4c9.19,0,21.68,10.812,31.084,26.9,8.022,13.722,11.72,28.124,9.428,36.69a11.2,11.2,0,0,1-5.06,7.116A10.069,10.069,0,0,1,55.2,75.994ZM24.8,10a4.116,4.116,0,0,0-2.08.5,5.5,5.5,0,0,0-2.24,3.464c-1.856,6.416.562,18,8.808,32.11C38.37,61.608,49.414,69.994,55.2,69.994h0a4.1,4.1,0,0,0,2.082-.5,5.381,5.381,0,0,0,2.236-3.456c1.734-6.292-.562-18-8.81-32.11C41.622,18.388,30.58,10,24.8,10Z" fill="#50a8ea"/><path d="M47.2,40a7,7,0,1,1-7-7A6.995,6.995,0,0,1,47.2,40Z" fill="#2c3246"/><path d="M40,48a8,8,0,1,1,8-8A8.008,8.008,0,0,1,40,48Zm0-14a6,6,0,1,0,6,6A6.007,6.007,0,0,0,40,34Z" fill="#50a8ea"/><path d="M40,56.136C18.692,56.136,2,49.048,2,40S18.692,23.864,40,23.864,78,30.952,78,40,61.308,56.136,40,56.136Zm0-30.272C20.486,25.864,4,32.338,4,40S20.486,54.136,40,54.136,76,47.664,76,40,59.514,25.864,40,25.864Z" fill="#2c3246"/><path d="M24.8,74h0a8.1,8.1,0,0,1-4.066-1.022,9.145,9.145,0,0,1-4.124-5.9C14.452,59,18.072,45.2,25.834,31.912,34.758,16.66,46.832,6.006,55.2,6.006a8.091,8.091,0,0,1,4.064,1.022,9.137,9.137,0,0,1,4.122,5.9C65.546,21,61.926,34.8,54.16,48.088,45.242,63.344,33.172,74,24.8,74ZM55.2,8.006c-7.568,0-19.19,10.478-27.634,24.916-7.39,12.65-11.014,26.166-9.016,33.636a7.233,7.233,0,0,0,3.184,4.684A6.124,6.124,0,0,0,24.8,72c7.57,0,19.19-10.48,27.628-24.922,7.394-12.652,11.02-26.17,9.018-33.636a7.21,7.21,0,0,0-3.18-4.676A6.1,6.1,0,0,0,55.2,8.006Z" fill="#2c3246"/><path d="M55.2,73.994h0c-8.374,0-20.448-10.654-29.362-25.906C18.072,34.8,14.454,21,16.616,12.926a9.132,9.132,0,0,1,4.124-5.9A8.081,8.081,0,0,1,24.8,6c8.37,0,20.442,10.656,29.358,25.912C61.924,45.2,65.542,59,63.378,67.076a9.109,9.109,0,0,1-4.118,5.9A8.083,8.083,0,0,1,55.2,73.994ZM24.8,8a6.129,6.129,0,0,0-3.07.758,7.233,7.233,0,0,0-3.184,4.684c-2,7.468,1.626,20.986,9.016,33.636C36,61.514,47.624,71.992,55.2,71.994h0a6.111,6.111,0,0,0,3.072-.76,7.215,7.215,0,0,0,3.178-4.676c2-7.47-1.624-20.988-9.016-33.636C43.992,18.482,32.374,8,24.8,8Z" fill="#2c3246"/></g></g></g></svg>