<svg xmlns="http://www.w3.org/2000/svg" xmlns:xlink="http://www.w3.org/1999/xlink" width="100" height="100" viewBox="0 0 100 100"><defs><clipPath id="a"><rect width="80" height="80" rx="10" transform="translate(424 2019)" fill="#2c3246"/></clipPath></defs><g transform="translate(-424 -1912)"><rect width="100" height="100" rx="10" transform="translate(424 1912)" fill="#2c3246"/><g transform="translate(10 -96)" clip-path="url(#a)"><g transform="translate(422.916 2017.882)"><path d="M23.387,34.952a1.949,1.949,0,0,1-1.735-1.028L21.138,32.9l-.193,1.157-.064.514a3.791,3.791,0,1,0,7.582,0,3.85,3.85,0,0,0-3.6-3.791l-1.092-.064.9.707a1.972,1.972,0,0,1-1.285,3.534Zm-.321-8.61a7.132,7.132,0,0,1,6.811,5.076,8.758,8.758,0,0,1,2.442-3.6c-10.473-.643-14.97-9.959-14.97-9.959l-.257,11.758a7.053,7.053,0,0,1,5.975-3.277ZM39.642,39.835a4.307,4.307,0,0,0,.193-8.61l-.964-.064.771.578a2.409,2.409,0,0,1,.9,1.928A2.44,2.44,0,0,1,38.1,36.109a2.566,2.566,0,0,1-2.185-1.285l-.45-.835-.129.964-.064.578a4.447,4.447,0,0,0,4.369,4.3ZM80.955,70.161c-.257-.9-.514-1.8-.771-2.634-1.606-5.783-2.827-10.28-7.9-9.83a4.121,4.121,0,0,0-1.992.707l-5.076-3.213h-.193l-.385-1.221-.771.514a44.447,44.447,0,0,0-5.2-2.763c5.783-6.875,8.931-19.018,6.746-38.871-.193-1.735-1.157-1.992-1.8-.129-.514,1.606-3.919,11.758-21.46,14.585a8.332,8.332,0,1,1-12.593,8.931,7.1,7.1,0,0,1-13.107,0,1.4,1.4,0,0,1-.193.321,2.793,2.793,0,0,1-.257-.45c-3.47-4.755-9-6.682-12.4-4.241C.193,34.374.257,40.221,3.727,44.975c2.891,3.984,7.2,5.975,10.537,5.076,9.7,7.2,27.628,13.428,39.642,5.783a50.573,50.573,0,0,0,7.582,3.534v.064l.257.771,1.028-.386.128.128L68.555,62a5.257,5.257,0,0,0,3.47,4.69,80.758,80.758,0,0,1,8.417,3.791l.643.321-.128-.643ZM3.213,36.687c0-2.056,1.414-3.727,3.084-3.727,1.735,0,3.084,1.671,3.084,3.727S7.967,40.413,6.3,40.413C4.562,40.413,3.213,38.743,3.213,36.687ZM26.728,48.637c11.758,2.377,17.8.193,21.267-2.57a16.624,16.624,0,0,0-2.506-2.506s4.112,1.157,5.59,3.02a3.089,3.089,0,0,1,.771,2.249c-2.056-.707-3.6-1.157-3.919-1.285-1.285-.578-2.506-.193-2.827.771a2.082,2.082,0,0,0,.578,2.185c-4.048,1.863-10.666,1.092-18.954-1.863Z" fill="#50a8ea"/></g></g></g></svg>