<svg xmlns="http://www.w3.org/2000/svg" xmlns:xlink="http://www.w3.org/1999/xlink" width="100" height="100" viewBox="0 0 100 100"><defs><clipPath id="a"><rect width="78" height="78" rx="10" transform="translate(606 2045)" fill="#2c3246"/></clipPath></defs><g transform="translate(-606 -1912)"><rect width="100" height="100" rx="10" transform="translate(606 1912)" fill="#2c3246"/><g transform="translate(11 -122)" clip-path="url(#a)"><g transform="translate(610.271 2045)"><path d="M91.033,13.158H18.421l6.407,69.789,29.9,8.211,29.9-8.211,6.407-69.789Z" transform="translate(-18.421 -13.158)" fill="#50a8ea"/><path d="M63.158,21.053V86.532l23.919-6.568,5.339-58.911Z" transform="translate(-26.852 -14.895)" fill="#3684bc"/><path d="M82.592,34.211H63.158v8.211H73.623l-.641,8.211H63.158v8.211h9.4l-.641,9.237-8.756,2.874v8.621L80.03,74.237l1.495-23.605h0Z" transform="translate(-26.852 -17.789)" fill="#2c3246"/><path d="M58.6,34.211v8.211H39.588l-.641-8.211ZM48.771,50.632l.427,8.211h9.4V50.632Zm.854,12.316H41.083l.641,11.289L58.6,79.574V70.953l-8.756-2.874Z" transform="translate(-22.289 -17.789)" fill="#2c3246"/></g></g></g></svg>