<svg xmlns="http://www.w3.org/2000/svg" xmlns:xlink="http://www.w3.org/1999/xlink" width="100" height="100" viewBox="0 0 100 100"><defs><clipPath id="a"><rect width="80" height="80" rx="10" transform="translate(860 1800)" fill="#2c3246"/></clipPath></defs><g transform="translate(-856 -1912)"><rect width="100" height="100" rx="10" transform="translate(856 1912)" fill="#2c3246"/><g transform="translate(6 123)" clip-path="url(#a)"><g transform="translate(864.955 1800)"><path d="M5.869,71.726,0,0,70.09.144,63.884,71.726,35.31,80Z" fill="#50a8ea"/><path d="M35.31,73.073V6.831l28.864.1L59.026,66.193Z" fill="#3684bc"/><path d="M32.219,14.7H24.588V58.785l-5.935-1.13V51.72l-7.066-1.13V63.872l20.631,5.37Zm5.724,0H59.068l-1.413,8.45H46.007V37.014H57.655L56.242,65l-18.3,4.239V60.481l12.364-4.239.714-11.587L37.943,46.548Z" fill="#2c3246"/></g></g></g></svg>