<svg xmlns="http://www.w3.org/2000/svg" xmlns:xlink="http://www.w3.org/1999/xlink" width="16" height="16" viewBox="0 0 16 16"><defs><clipPath id="a"><rect width="16" height="16" transform="translate(302 856)" fill="#9195a0"/></clipPath></defs><g transform="translate(-302 -856)" clip-path="url(#a)"><path d="M14.5,2H1.5A1.5,1.5,0,0,0,0,3.5v10A1.5,1.5,0,0,0,1.5,15h13A1.5,1.5,0,0,0,16,13.5V3.5A1.5,1.5,0,0,0,14.5,2ZM6.23,8.6,2,11.9V4.057ZM2.756,4H13.244L8,7.938,2.756,4ZM6.395,8.777,8,10.5,9.6,8.777,12.895,13H3.1l3.29-4.223ZM9.77,8.6,14,4.057V11.9Z" transform="translate(302 855.5)" fill="#9195a0"/></g></svg>